<svg xmlns="http://www.w3.org/2000/svg" enable-background="new 0 0 480 480" viewBox="0 0 480 480">
  <defs>
    <linearGradient id="myGradient" x1="0" y1="0%" x2="0" y2="100%">
      <stop offset="0%"  stop-color="#fa0891"/>
      <stop offset="100" stop-color="#f26522" />
    </linearGradient>
  </defs>
    <path fill="url('#myGradient')" d="M456 232V56c0-22.056-17.944-40-40-40H64c-22.056 0-40 17.944-40 40v120c-13.232 0-24 10.768-24 24v240c0 13.232 10.768 24 24 24h176c13.232 0 24-10.768 24-24h67.048c7.544 0 14.496-3.44 19.072-9.432s6.064-13.608 4.08-20.88L298.472 352H344v88c0 13.232 10.768 24 24 24h88c13.232 0 24-10.768 24-24V256c0-13.232-10.768-24-24-24zM208 440c0 4.408-3.592 8-8 8H24c-4.408 0-8-3.592-8-8v-16h192v16zm0-32H16V232h192v176zm0-192H16v-16c0-4.408 3.592-8 8-8h176c4.408 0 8 3.592 8 8v16zm90.768 197.896c.664 2.424.168 4.96-1.36 6.96s-3.84 3.144-6.36 3.144H224v-16h73.16l1.608 5.896zM224 392v-40h57.888l10.912 40H224zm120-56H224v-48h120v48zm0-80v16H224v-72c0-13.232-10.768-24-24-24H40V56c0-13.232 10.768-24 24-24h352c13.232 0 24 10.768 24 24v176h-72c-13.232 0-24 10.768-24 24zm120 184c0 4.408-3.592 8-8 8h-88c-4.408 0-8-3.592-8-8v-16h104v16zm0-32H360V288h104v120zm0-136H360v-16c0-4.408 3.592-8 8-8h88c4.408 0 8 3.592 8 8v16z"/>
    <path fill="url('#myGradient')" d="M41.372 327.994H86.628V343.994H41.372z" transform="rotate(-45.001 63.996 335.996)"/>
    <path fill="url('#myGradient')" d="M60.114 319.995H195.881V335.995H60.114z" transform="rotate(-45.001 127.994 327.998)"/>
    <path fill="url('#myGradient')" d="M86.054 272.005H153.933V288.005H86.054z" transform="rotate(-45.001 119.991 280.007)"/>
    <path fill="url('#myGradient')" d="M375.705 324.008H432.264V340.008H375.705z" transform="rotate(-45.001 403.982 332.014)"/>
    <path fill="url('#myGradient')" d="M391.702 356.042H448.26099999999997V372.042H391.702z" transform="rotate(-45.001 419.98 364.048)"/>
    <path fill="url('#myGradient')" d="M206.052 128.002H273.931V144.002H206.052z" transform="rotate(-45.001 239.991 136.005)"/>
    <path fill="url('#myGradient')" d="M278.057 112.001H345.93600000000004V128.001H278.057z" transform="rotate(-45.001 311.997 120.005)"/>
    <path fill="url('#myGradient')" d="M233.364 168.01H278.62V184.01H233.364z" transform="rotate(-45.001 255.99 176.014)"/>
    <path fill="url('#myGradient')" d="M273.302 72.062H318.67V88.062H273.302z" transform="rotate(-45.001 295.986 80.066)"/>
    <path fill="url('#myGradient')" d="M56 48H72V64H56zM88 48H104V64H88zM120 48H136V64H120z"/>
</svg>
