<svg xmlns="http://www.w3.org/2000/svg" enable-background="new 0 0 512 512" viewBox="0 0 512 512">
  <defs>
    <linearGradient id="myGradient" x1="0" y1="0%" x2="0" y2="100%">
      <stop offset="0%"  stop-color="#fa0891"/>
      <stop offset="100" stop-color="#f26522" />
    </linearGradient>
  </defs>
    <path fill="url('#myGradient')" d="M458.667 0H53.333C23.893.035.035 23.893 0 53.333v405.333C.035 488.107 23.893 511.965 53.333 512h405.333c29.441-.035 53.298-23.893 53.333-53.333V53.333C511.965 23.893 488.107.035 458.667 0zm32 458.667c0 17.673-14.327 32-32 32H53.333c-17.673 0-32-14.327-32-32V53.333c0-17.673 14.327-32 32-32h405.333c17.673 0 32 14.327 32 32v405.334z"/>
    <path fill="url('#myGradient')" d="M42.667 85.333H202.667V106.666H42.667zM53.333 42.667H74.666V64H53.333zM96 42.667H117.333V64H96zM437.333 42.667H458.66600000000005V64H437.333zM448 170.667H64c-11.782 0-21.333 9.551-21.333 21.333v234.667C42.667 438.449 52.218 448 64 448h384c11.782 0 21.333-9.551 21.333-21.333V192c0-11.782-9.551-21.333-21.333-21.333zm0 256H64V192h384v234.667z"/>
    <path fill="url('#myGradient')" d="M263.541 88.459c-4.165-4.164-10.917-4.164-15.083 0l-85.333 85.333 15.083 15.083L256 111.083l77.461 77.461 15.083-15.083-85.003-85.002zM309.333 85.333H458.66600000000005V106.666H309.333zM224 352v-21.333h-21.333V352c.062.634.062 1.273 0 1.907-.527 5.365-5.302 9.287-10.667 8.76h-21.333c-.634.062-1.273.062-1.907 0-5.365-.527-9.286-5.302-8.76-10.667v-85.333c-.062-.634-.062-1.273 0-1.907.526-5.365 5.302-9.286 10.667-8.76H192c.634-.062 1.273-.062 1.907 0 5.365.526 9.286 5.302 8.76 10.667V288H224v-21.333c.018-.606.018-1.213 0-1.819-.502-17.171-14.829-30.684-32-30.181h-21.333c-.606-.018-1.213-.018-1.819 0-17.171.502-30.684 14.829-30.181 32V352c-.018.606-.018 1.213 0 1.819.502 17.171 14.829 30.684 32 30.181H192c.606.018 1.213.018 1.819 0 17.171-.502 30.683-14.829 30.181-32zM266.667 234.667H288V384H266.667zM320 234.667H341.33299999999997V384H320z"/>
    <path fill="url('#myGradient')" d="M245.333 266.667H362.666V288H245.333zM245.333 330.667H362.666V352H245.333z"/>
</svg>
